<?xml version="1.0" encoding="UTF-8" standalone="no"?>
<!DOCTYPE svg PUBLIC "-//W3C//DTD SVG 1.1//EN"
 "http://www.w3.org/Graphics/SVG/1.1/DTD/svg11.dtd">
<!-- Generated by graphviz version 2.38.0 (20140413.2041)
 -->
<!-- Title: snakemake_dag Pages: 1 -->
<svg width="288pt" height="188pt"
 viewBox="0.00 0.00 288.00 188.00" xmlns="http://www.w3.org/2000/svg" xmlns:xlink="http://www.w3.org/1999/xlink">
<g id="graph0" class="graph" transform="scale(1 1) rotate(0) translate(4 184)">
<title>snakemake_dag</title>
<polygon fill="white" stroke="none" points="-4,4 -4,-184 284,-184 284,4 -4,4"/>
<!-- 0 -->
<g id="node1" class="node"><title>0</title>
<path fill="none" stroke="#d8b456" stroke-width="2" d="M50,-108C50,-108 12,-108 12,-108 6,-108 3.55271e-15,-102 3.55271e-15,-96 3.55271e-15,-96 3.55271e-15,-84 3.55271e-15,-84 3.55271e-15,-78 6,-72 12,-72 12,-72 50,-72 50,-72 56,-72 62,-78 62,-84 62,-84 62,-96 62,-96 62,-102 56,-108 50,-108"/>
<text text-anchor="middle" x="31" y="-87" font-family="sans" font-size="10.00">resfinder</text>
</g>
<!-- 1 -->
<g id="node2" class="node"><title>1</title>
<path fill="none" stroke="#d88556" stroke-width="2" d="M159,-36C159,-36 129,-36 129,-36 123,-36 117,-30 117,-24 117,-24 117,-12 117,-12 117,-6 123,-0 129,-0 129,-0 159,-0 159,-0 165,-0 171,-6 171,-12 171,-12 171,-24 171,-24 171,-30 165,-36 159,-36"/>
<text text-anchor="middle" x="144" y="-15" font-family="sans" font-size="10.00">all</text>
</g>
<!-- 0&#45;&gt;1 -->
<g id="edge2" class="edge"><title>0&#45;&gt;1</title>
<path fill="none" stroke="grey" stroke-width="2" d="M58.6429,-71.8761C73.5279,-62.6553 92.0656,-51.1717 108.059,-41.2646"/>
<polygon fill="grey" stroke="grey" stroke-width="2" points="109.985,-44.1887 116.642,-35.9471 106.298,-38.238 109.985,-44.1887"/>
</g>
<!-- 2 -->
<g id="node3" class="node"><title>2</title>
<path fill="none" stroke="#56d8c9" stroke-width="2" d="M123.5,-108C123.5,-108 92.5,-108 92.5,-108 86.5,-108 80.5,-102 80.5,-96 80.5,-96 80.5,-84 80.5,-84 80.5,-78 86.5,-72 92.5,-72 92.5,-72 123.5,-72 123.5,-72 129.5,-72 135.5,-78 135.5,-84 135.5,-84 135.5,-96 135.5,-96 135.5,-102 129.5,-108 123.5,-108"/>
<text text-anchor="middle" x="108" y="-87" font-family="sans" font-size="10.00">multiqc</text>
</g>
<!-- 2&#45;&gt;1 -->
<g id="edge4" class="edge"><title>2&#45;&gt;1</title>
<path fill="none" stroke="grey" stroke-width="2" d="M116.899,-71.6966C120.997,-63.7284 125.949,-54.0995 130.493,-45.2641"/>
<polygon fill="grey" stroke="grey" stroke-width="2" points="133.742,-46.598 135.203,-36.1043 127.517,-43.3965 133.742,-46.598"/>
</g>
<!-- 3 -->
<g id="node4" class="node"><title>3</title>
<path fill="none" stroke="#d85656" stroke-width="2" d="M196,-108C196,-108 166,-108 166,-108 160,-108 154,-102 154,-96 154,-96 154,-84 154,-84 154,-78 160,-72 166,-72 166,-72 196,-72 196,-72 202,-72 208,-78 208,-84 208,-84 208,-96 208,-96 208,-102 202,-108 196,-108"/>
<text text-anchor="middle" x="181" y="-87" font-family="sans" font-size="10.00">mlst</text>
</g>
<!-- 3&#45;&gt;1 -->
<g id="edge1" class="edge"><title>3&#45;&gt;1</title>
<path fill="none" stroke="grey" stroke-width="2" d="M171.854,-71.6966C167.597,-63.6436 162.444,-53.8945 157.734,-44.9824"/>
<polygon fill="grey" stroke="grey" stroke-width="2" points="160.808,-43.3097 153.041,-36.1043 154.62,-46.5809 160.808,-43.3097"/>
</g>
<!-- 4 -->
<g id="node5" class="node"><title>4</title>
<path fill="none" stroke="#56b1d8" stroke-width="2" d="M268,-108C268,-108 238,-108 238,-108 232,-108 226,-102 226,-96 226,-96 226,-84 226,-84 226,-78 232,-72 238,-72 238,-72 268,-72 268,-72 274,-72 280,-78 280,-84 280,-84 280,-96 280,-96 280,-102 274,-108 268,-108"/>
<text text-anchor="middle" x="253" y="-87" font-family="sans" font-size="10.00">sum</text>
</g>
<!-- 4&#45;&gt;1 -->
<g id="edge3" class="edge"><title>4&#45;&gt;1</title>
<path fill="none" stroke="grey" stroke-width="2" d="M226.336,-71.8761C212.216,-62.8083 194.689,-51.5523 179.439,-41.7592"/>
<polygon fill="grey" stroke="grey" stroke-width="2" points="181.073,-38.6485 170.767,-36.1898 177.29,-44.5385 181.073,-38.6485"/>
</g>
<!-- 5 -->
<g id="node6" class="node"><title>5</title>
<path fill="none" stroke="#56d86b" stroke-width="2" d="M123,-180C123,-180 93,-180 93,-180 87,-180 81,-174 81,-168 81,-168 81,-156 81,-156 81,-150 87,-144 93,-144 93,-144 123,-144 123,-144 129,-144 135,-150 135,-156 135,-156 135,-168 135,-168 135,-174 129,-180 123,-180"/>
<text text-anchor="middle" x="108" y="-159" font-family="sans" font-size="10.00">quast</text>
</g>
<!-- 5&#45;&gt;2 -->
<g id="edge5" class="edge"><title>5&#45;&gt;2</title>
<path fill="none" stroke="grey" stroke-width="2" d="M108,-143.697C108,-135.983 108,-126.712 108,-118.112"/>
<polygon fill="grey" stroke="grey" stroke-width="2" points="111.5,-118.104 108,-108.104 104.5,-118.104 111.5,-118.104"/>
</g>
</g>
</svg>
